<svg version="1.2" xmlns="http://www.w3.org/2000/svg" viewBox="0 0 1024 1024" width="1024" height="1024">
	<style>
		.s0 { mix-blend-mode: color-burn;fill: #131d39 } 
	</style>
	<path class="s0" d="m547.23 349.3q2.35 0.84 4.77 1.7c2.95 0.95 5.9 1.9 8.94 2.87 22.37 8.68 39.25 22.32 56.06 39.13q3.62 4.92 7 10 1.69 2.52 3.44 5.12c11.29 18.62 16.5 35.46 19.56 56.88q0.06 9.5 0 19 2.46 0.98 5 2c9.18 6.91 16.17 13.96 21.81 24 4.58 10.47 6.08 19.98 6.5 31.44-0.38 11.7-2.05 22.04-7.31 32.56-6.13 10.3-12.57 18.37-22.13 25.69-7.89 4.95-16 9.35-24.87 12.31-1.49 3.46-1.49 3.46-3 7-4.27 8.45-8.73 15.88-15 23q-0.99 0-2 0 0 0.98 0 2c-10.16 9.19-20.99 15.16-33.81 19.87-9.76 2.89-18 4.39-28.19 4.13-0.66 2.31-1.32 4.62-2 7-1.98 1.65-3.96 3.3-6 5-6.75 0.47-13.19 0.65-19.94 0.56q-2.72 0.02-5.52 0.04c-4.85-0.03-9.7-0.3-14.54-0.6-7-4-7-4-13-11-2-5-2-5-2.44-12.25 0.44-7.75 0.44-7.75 2.5-12.88 2.94-3.87 2.94-3.87 9.94-8.87 6.75-2.25 14.65-1.27 21.75-1.31q2.6-0.05 5.27-0.09c4.66-0.02 9.32 0.18 13.98 0.4 7 4 7 4 10 8q0 0.98 0 2c10.53-0.96 20.22-1.87 30-6 10-6 17.3-12.21 24.06-21.69 1.46-2.63 1.46-2.63 2.94-5.31-0.65-4.88-0.65-4.88-3-8-0.21-3.81-0.28-7.62-0.29-11.43-0.01-2.42-0.03-4.84-0.04-7.33 0-2.63 0-5.26-0.01-7.97-0.01-4.03-0.01-4.03-0.02-8.15q-0.01-8.54-0.01-17.09-0.01-13.1-0.08-26.19-0.01-8.29-0.01-16.57c-0.02-2.63-0.03-5.25-0.04-7.95 0-2.44 0.01-4.87 0.01-7.37 0-2.15 0-4.29 0-6.5 0.49-5.45 0.49-5.45 4.49-12.45q2.46-1.48 5-3 8-0.19 16 0c0-14.03-3.54-26.14-9-39-7.15-14.3-16.6-26.87-29-37-16.61-12.49-31.88-19.49-52-24q-2.92-0.68-5.94-1.38c-16.98-1.75-33.39-1.39-49.74 3.89-17.42 6.12-31.41 14.71-45.45 26.74-11.15 10.92-20.16 23.22-25.85 37.84-4.02 11.34-7.21 21.84-8.02 33.91q0.99-0.49 2-1c6.62-0.31 6.62-0.31 14 0 2.64 1.32 5.28 2.64 8 4q1.48 2.46 3 5c0.29 3.87 0.4 7.76 0.42 11.64 0.02 3.62 0.02 3.62 0.05 7.32 0 2.62 0 5.24 0 7.93 0.01 4.03 0.01 4.03 0.02 8.13q0.02 8.52 0.01 17.04 0.01 13.06 0.09 26.11 0 8.27 0 16.54c0.02 2.61 0.04 5.22 0.05 7.91-0.01 2.43-0.02 4.85-0.02 7.35 0 2.14 0 4.27 0 6.47-0.31 2.75-0.31 2.75-0.62 5.56-1.65 2.64-3.3 5.28-5 8-4 2-4 2-11.56 2.31-9.78-0.36-16.57-2.03-25.44-6-10.84-5.98-19.14-12.72-27-22.31-4.93-7.84-8.78-15.01-11-24-0.66-2.31-1.32-4.62-2-7q-0.23-5.18-0.19-10.38 0.01-2.65 0.02-5.39c0.36-11 2.68-19.24 7.17-29.23 3.31-4.81 3.31-4.81 7-9 1.49-1.73 2.97-3.47 4.5-5.25 4.5-4.75 4.5-4.75 11.5-9.75q0.99 0 2 0c-0.08-3.26-0.16-6.52-0.25-9.88 0.02-16.7 4.12-31.64 10.25-47.12 9.91-20.77 22.78-35.78 39-52 17.04-13.37 36.11-22.55 57-28 21.94-3.48 44.89-4.61 66.23 2.3z"/>
</svg>